<?xml version="1.0" standalone="no"?>
<!DOCTYPE svg PUBLIC "-//W3C//DTD SVG 20010904//EN"
 "http://www.w3.org/TR/2001/REC-SVG-20010904/DTD/svg10.dtd">
<svg version="1.0" xmlns="http://www.w3.org/2000/svg"
 width="423.000000pt" height="423.000000pt" viewBox="0 0 423.000000 423.000000"
 preserveAspectRatio="xMidYMid meet">
<metadata>
Created by potrace 1.11, written by Peter Selinger 2001-2013
</metadata>
<g transform="translate(0.000000,423.000000) scale(0.100000,-0.100000)"
fill="#000000" stroke="none">
<path d="M403 2628 c-211 -72 -327 -305 -255 -511 26 -72 31 -80 305 -428 l78
-99 170 217 c212 273 232 311 231 451 -2 269 -271 457 -529 370z m229 -192
c125 -60 151 -243 48 -343 -69 -67 -174 -80 -259 -32 -133 75 -141 274 -14
362 68 47 144 51 225 13z"/>
<path d="M3107 2373 c-3 -5 -8 -32 -11 -62 -4 -29 -8 -56 -10 -60 -2 -3 -7
-26 -10 -51 -3 -25 -12 -79 -20 -120 -8 -41 -17 -95 -21 -120 -4 -24 -9 -48
-11 -52 -3 -5 8 -8 25 -8 34 0 34 -2 56 134 18 109 33 140 73 153 43 14 69 5
80 -27 6 -15 9 -30 7 -32 -2 -2 -6 -24 -9 -48 -3 -25 -8 -56 -11 -70 -3 -14
-8 -44 -12 -67 -5 -41 -5 -43 20 -43 31 0 33 3 41 60 3 25 8 56 11 70 3 14 8
55 12 91 5 59 3 68 -18 93 -31 36 -93 39 -139 6 l-31 -22 5 24 c15 71 26 131
26 143 0 16 -45 21 -53 8z"/>
<path d="M4165 2333 c-5 -27 -9 -54 -11 -61 -1 -8 -8 -46 -14 -85 -7 -40 -14
-81 -17 -92 -2 -11 -5 -32 -8 -47 -2 -15 -6 -35 -9 -45 -3 -10 -7 -37 -10 -60
-5 -41 -4 -43 23 -43 l28 0 37 223 c21 122 40 230 42 240 4 13 -1 17 -24 17
-28 0 -30 -3 -37 -47z"/>
<path d="M985 2352 c-3 -3 -5 -106 -5 -229 l0 -224 48 3 47 3 -1 143 c-1 168
-9 170 107 -24 l74 -124 48 0 47 0 0 228 0 228 -45 0 c-33 -1 -45 -5 -46 -16
-1 -8 -1 -75 -1 -149 l-1 -133 -21 33 c-11 18 -52 85 -91 148 l-70 115 -42 2
c-24 1 -45 -1 -48 -4z"/>
<path d="M2465 2346 c-48 -22 -77 -60 -82 -108 -7 -58 25 -97 104 -128 103
-41 129 -87 77 -135 -56 -52 -158 -38 -170 24 -5 23 -13 30 -35 33 -25 4 -29
1 -29 -18 0 -116 197 -162 287 -67 43 45 39 129 -8 164 -10 8 -52 30 -92 49
-65 31 -72 38 -75 67 -9 93 168 117 181 24 3 -18 11 -26 29 -28 15 -2 28 2 31
10 8 21 -22 80 -50 102 -34 24 -126 31 -168 11z"/>
<path d="M1534 2236 c-56 -15 -80 -36 -102 -84 -37 -83 -11 -193 56 -234 50
-30 135 -30 186 1 41 26 43 34 18 61 -18 19 -19 19 -55 1 -41 -21 -76 -18
-106 10 -44 41 -29 49 85 49 l107 0 -6 59 c-5 65 -27 105 -66 125 -42 21 -73
25 -117 12z m80 -82 c9 -8 16 -24 16 -35 0 -17 -7 -19 -60 -19 -66 0 -77 13
-40 50 24 24 63 26 84 4z"/>
<path d="M1858 2238 c-41 -11 -88 -58 -88 -88 0 -15 7 -18 41 -15 27 2 46 10
55 23 14 21 56 24 75 5 12 -12 20 -53 11 -54 -4 0 -31 -2 -60 -4 -96 -6 -152
-70 -126 -143 20 -55 105 -84 160 -56 19 10 31 11 38 4 5 -5 29 -10 53 -10 42
0 43 1 37 27 -4 15 -7 73 -7 128 0 81 -3 106 -18 131 -29 47 -102 69 -171 52z
m98 -217 c-2 -14 -5 -29 -5 -33 -2 -14 -63 -28 -82 -17 -38 20 -19 67 32 78
47 10 60 4 55 -28z"/>
<path d="M2237 2230 c-31 -17 -37 -17 -37 -5 0 11 -11 15 -40 15 -22 0 -40 -3
-41 -7 -3 -26 -4 -310 -1 -320 2 -8 22 -13 47 -13 l43 0 -2 111 c-1 124 7 141
67 144 29 1 32 4 35 40 1 23 -2 42 -10 47 -18 11 -18 11 -61 -12z"/>
<path d="M2844 2240 c-100 -22 -162 -169 -115 -274 39 -90 162 -96 226 -12 46
61 5 76 -52 18 -66 -67 -136 -26 -132 78 3 72 24 115 65 135 47 22 83 11 100
-31 11 -26 20 -34 39 -34 16 0 25 6 25 15 0 21 -25 68 -44 84 -22 19 -76 28
-112 21z"/>
<path d="M3525 2240 c-69 -15 -116 -66 -133 -144 -23 -109 26 -197 110 -198
64 -1 77 2 108 28 47 40 74 100 74 164 -1 110 -65 171 -159 150z m70 -63 c66
-56 28 -214 -56 -232 -64 -14 -100 31 -94 118 4 73 52 134 107 136 9 1 29 -9
43 -22z"/>
<path d="M3863 2234 c-124 -42 -164 -251 -60 -318 104 -68 239 30 239 175 1
113 -79 177 -179 143z m79 -45 c47 -25 57 -130 19 -192 -34 -56 -91 -72 -132
-38 -20 16 -24 29 -25 78 -2 72 17 118 59 143 37 23 50 24 79 9z"/>
</g>
</svg>
