<svg xmlns="http://www.w3.org/2000/svg" viewBox="0 0 128 128"><defs><style>.cls-1{fill:#47566a;}</style></defs><title>Searching</title><g id="Searching"><path class="cls-1" d="M79.57,36.43a22,22,0,1,0,0,31.14A22,22,0,0,0,79.57,36.43Zm-1.44,29.7a20,20,0,1,1,0-28.26A20,20,0,0,1,78.13,66.13Z"/><path class="cls-1" d="M117,0H31A11,11,0,0,0,20,11v97H1a1,1,0,0,0-1,1v8a11,11,0,0,0,11,11H97a11,11,0,0,0,11-11V104a3.42,3.42,0,0,0,2.41-1c4.71-4.71,5.59-5.13,5.59-7s-.66-2.08-8-9.42V20h19a1,1,0,0,0,1-1V11A11,11,0,0,0,117,0ZM90.62,126H11a9,9,0,0,1-9-9v-7H86C86,116.29,85,122,90.62,126ZM114,96c0,.79,0,.61-5,5.57a1.43,1.43,0,0,1-2,0L86.43,81a1.38,1.38,0,0,1,0-2c5.07-5.07,4.8-5,5.57-5s-.17-.75,14.28,13.7C113.87,95.31,114,95.11,114,96ZM82.37,70.37a26,26,0,1,1,0-36.74A26,26,0,0,1,82.37,70.37Zm2.79,0,3.52,3.52-2.8,2.8-3.52-3.52A26.44,26.44,0,0,0,85.16,70.36ZM94.43,73a3.53,3.53,0,0,0-4.23-.47l-3.75-3.75C100.27,50.28,87,24,64,24A28,28,0,0,0,36,52c0,23.37,26.71,36,44.79,22.45l3.73,3.74A3.41,3.41,0,0,0,85,82.43c22.22,22.23,20.57,20.61,21,20.92V117a9,9,0,0,1-18,0v-8a1,1,0,0,0-1-1H22V11a9,9,0,0,1,9-9c85.6,0,79.74-.08,79.41.17a11,11,0,0,0-4.14,6.32c-.41,1.77-.29-4.19-.29,76ZM126,18H108V11a9,9,0,0,1,18,0Z"/></g></svg>